{
    "asset" : {
        "generator" : "Khronos glTF Blender I/O v3.4.50",
        "version" : "2.0"
    },
    "extensionsUsed" : [
        "KHR_materials_specular",
        "KHR_materials_ior"
    ],
    "scene" : 0,
    "scenes" : [
        {
            "name" : "Dark studio setup",
            "nodes" : [
                4
            ]
        },
        {
            "name" : "Scene",
            "nodes" : [
                5
            ]
        }
    ],
    "nodes" : [
        {
            "mesh" : 0,
            "name" : "Body",
            "rotation" : [
                0.7071068286895752,
                0,
                0,
                0.7071068286895752
            ],
            "scale" : [
                10.000000953674316,
                10.000000953674316,
                10.000000953674316
            ],
            "translation" : [
                0.1285877227783203,
                -3.924846649169922,
                -48.177555084228516
            ]
        },
        {
            "mesh" : 1,
            "name" : "Head",
            "scale" : [
                10.000000953674316,
                10.000000953674316,
                10.000000953674316
            ]
        },
        {
            "mesh" : 2,
            "name" : "Lid",
            "rotation" : [
                0,
                0,
                -1,
                4.570347193148111e-14
            ],
            "scale" : [
                10.000000953674316,
                10.000000953674316,
                10.000000953674316
            ],
            "translation" : [
                0.0013151849852874875,
                18.804828643798828,
                6.260531425476074
            ]
        },
        {
            "mesh" : 3,
            "name" : "Mouthpiece",
            "rotation" : [
                0,
                0.7071068286895752,
                0,
                0.7071068286895752
            ],
            "scale" : [
                10.000000953674316,
                10.000000953674316,
                10.000000953674316
            ],
            "translation" : [
                0.09709784388542175,
                -4.113161087036133,
                -78.17628479003906
            ]
        },
        {
            "children" : [
                0,
                1,
                2,
                3
            ],
            "name" : "Brockton",
            "rotation" : [
                0,
                0.7071068286895752,
                0,
                0.7071068286895752
            ],
            "scale" : [
                0.0067542423494160175,
                0.0067542423494160175,
                0.0067542423494160175
            ],
            "translation" : [
                0,
                0.1848600059747696,
                0
            ]
        },
        {
            "mesh" : 4,
            "name" : "Brockton MK2 v2",
            "rotation" : [
                0.7071069478988647,
                0,
                0,
                0.7071066498756409
            ],
            "scale" : [
                0.18993598222732544,
                0.18993598222732544,
                0.18993598222732544
            ]
        }
    ],
    "animations" : [
        {
            "channels" : [
                {
                    "sampler" : 0,
                    "target" : {
                        "node" : 4,
                        "path" : "rotation"
                    }
                },
                {
                    "sampler" : 1,
                    "target" : {
                        "node" : 4,
                        "path" : "translation"
                    }
                }
            ],
            "name" : "BrocktonAction.004",
            "samplers" : [
                {
                    "input" : 20,
                    "interpolation" : "LINEAR",
                    "output" : 21
                },
                {
                    "input" : 22,
                    "interpolation" : "STEP",
                    "output" : 23
                }
            ]
        }
    ],
    "materials" : [
        {
            "doubleSided" : true,
            "extensions" : {
                "KHR_materials_specular" : {
                    "specularColorFactor" : [
                        0.10579833002801561,
                        0.07649797421874839,
                        0.02361716460346282
                    ]
                },
                "KHR_materials_ior" : {
                    "ior" : 0
                }
            },
            "name" : "Fine Gold",
            "pbrMetallicRoughness" : {
                "baseColorFactor" : [
                    1,
                    0.7230546474456787,
                    0.22322814166545868,
                    1
                ],
                "roughnessFactor" : 0.055454544723033905
            }
        },
        {
            "doubleSided" : true,
            "name" : "Opaque(160,160,160)",
            "pbrMetallicRoughness" : {
                "baseColorFactor" : [
                    0.800000011920929,
                    0.800000011920929,
                    0.800000011920929,
                    1
                ],
                "metallicFactor" : 0,
                "roughnessFactor" : 0.5
            }
        }
    ],
    "meshes" : [
        {
            "name" : "Body1.002",
            "primitives" : [
                {
                    "attributes" : {
                        "POSITION" : 0,
                        "TEXCOORD_0" : 1,
                        "NORMAL" : 2
                    },
                    "indices" : 3,
                    "material" : 0
                }
            ]
        },
        {
            "name" : "Body18.001",
            "primitives" : [
                {
                    "attributes" : {
                        "POSITION" : 4,
                        "TEXCOORD_0" : 5,
                        "NORMAL" : 6
                    },
                    "indices" : 7,
                    "material" : 0
                }
            ]
        },
        {
            "name" : "Body37.001",
            "primitives" : [
                {
                    "attributes" : {
                        "POSITION" : 8,
                        "TEXCOORD_0" : 9,
                        "NORMAL" : 10
                    },
                    "indices" : 11,
                    "material" : 0
                }
            ]
        },
        {
            "name" : "Body1.003",
            "primitives" : [
                {
                    "attributes" : {
                        "POSITION" : 12,
                        "TEXCOORD_0" : 13,
                        "NORMAL" : 14
                    },
                    "indices" : 15,
                    "material" : 0
                }
            ]
        },
        {
            "name" : "Brockton MK2 v2",
            "primitives" : [
                {
                    "attributes" : {
                        "POSITION" : 16,
                        "TEXCOORD_0" : 17,
                        "NORMAL" : 18
                    },
                    "indices" : 19,
                    "material" : 1
                }
            ]
        }
    ],
    "accessors" : [
        {
            "bufferView" : 0,
            "componentType" : 5126,
            "count" : 5409,
            "max" : [
                0.6539178490638733,
                3.0001330375671387,
                0.6502544283866882
            ],
            "min" : [
                -0.6460821032524109,
                -2.9998669624328613,
                -0.649745523929596
            ],
            "type" : "VEC3"
        },
        {
            "bufferView" : 1,
            "componentType" : 5126,
            "count" : 5409,
            "type" : "VEC2"
        },
        {
            "bufferView" : 2,
            "componentType" : 5126,
            "count" : 5409,
            "type" : "VEC3"
        },
        {
            "bufferView" : 3,
            "componentType" : 5123,
            "count" : 20262,
            "type" : "SCALAR"
        },
        {
            "bufferView" : 4,
            "componentType" : 5126,
            "count" : 13088,
            "max" : [
                1.5301316976547241,
                1.7307555675506592,
                2.146791458129883
            ],
            "min" : [
                -1.529868483543396,
                -1.2692444324493408,
                -2.883213758468628
            ],
            "type" : "VEC3"
        },
        {
            "bufferView" : 5,
            "componentType" : 5126,
            "count" : 13088,
            "type" : "VEC2"
        },
        {
            "bufferView" : 6,
            "componentType" : 5126,
            "count" : 13088,
            "type" : "VEC3"
        },
        {
            "bufferView" : 7,
            "componentType" : 5123,
            "count" : 60186,
            "type" : "SCALAR"
        },
        {
            "bufferView" : 8,
            "componentType" : 5126,
            "count" : 1126,
            "max" : [
                1.5300003290176392,
                0.15027277171611786,
                1.5207382440567017
            ],
            "min" : [
                -1.529999852180481,
                -0.14972718060016632,
                -1.5392619371414185
            ],
            "type" : "VEC3"
        },
        {
            "bufferView" : 9,
            "componentType" : 5126,
            "count" : 1126,
            "type" : "VEC2"
        },
        {
            "bufferView" : 10,
            "componentType" : 5126,
            "count" : 1126,
            "type" : "VEC3"
        },
        {
            "bufferView" : 11,
            "componentType" : 5123,
            "count" : 3996,
            "type" : "SCALAR"
        },
        {
            "bufferView" : 12,
            "componentType" : 5126,
            "count" : 4719,
            "max" : [
                0.7366126775741577,
                0.8000027537345886,
                0.8007356524467468
            ],
            "min" : [
                -1.0633872747421265,
                -0.7999972701072693,
                -0.7992643713951111
            ],
            "type" : "VEC3"
        },
        {
            "bufferView" : 13,
            "componentType" : 5126,
            "count" : 4719,
            "type" : "VEC2"
        },
        {
            "bufferView" : 14,
            "componentType" : 5126,
            "count" : 4719,
            "type" : "VEC3"
        },
        {
            "bufferView" : 15,
            "componentType" : 5123,
            "count" : 18330,
            "type" : "SCALAR"
        },
        {
            "bufferView" : 16,
            "componentType" : 5126,
            "count" : 22463,
            "max" : [
                30.299999237060547,
                3,
                0.28784701228141785
            ],
            "min" : [
                -0.30000001192092896,
                -30,
                -110.01215362548828
            ],
            "type" : "VEC3"
        },
        {
            "bufferView" : 17,
            "componentType" : 5126,
            "count" : 22463,
            "type" : "VEC2"
        },
        {
            "bufferView" : 18,
            "componentType" : 5126,
            "count" : 22463,
            "type" : "VEC3"
        },
        {
            "bufferView" : 19,
            "componentType" : 5123,
            "count" : 92385,
            "type" : "SCALAR"
        },
        {
            "bufferView" : 20,
            "componentType" : 5126,
            "count" : 201,
            "max" : [
                8
            ],
            "min" : [
                0
            ],
            "type" : "SCALAR"
        },
        {
            "bufferView" : 21,
            "componentType" : 5126,
            "count" : 201,
            "type" : "VEC4"
        },
        {
            "bufferView" : 22,
            "componentType" : 5126,
            "count" : 1,
            "max" : [
                4
            ],
            "min" : [
                4
            ],
            "type" : "SCALAR"
        },
        {
            "bufferView" : 23,
            "componentType" : 5126,
            "count" : 1,
            "type" : "VEC3"
        }
    ],
    "bufferViews" : [
        {
            "buffer" : 0,
            "byteLength" : 64908,
            "byteOffset" : 0,
            "target" : 34962
        },
        {
            "buffer" : 0,
            "byteLength" : 43272,
            "byteOffset" : 64908,
            "target" : 34962
        },
        {
            "buffer" : 0,
            "byteLength" : 64908,
            "byteOffset" : 108180,
            "target" : 34962
        },
        {
            "buffer" : 0,
            "byteLength" : 40524,
            "byteOffset" : 173088,
            "target" : 34963
        },
        {
            "buffer" : 0,
            "byteLength" : 157056,
            "byteOffset" : 213612,
            "target" : 34962
        },
        {
            "buffer" : 0,
            "byteLength" : 104704,
            "byteOffset" : 370668,
            "target" : 34962
        },
        {
            "buffer" : 0,
            "byteLength" : 157056,
            "byteOffset" : 475372,
            "target" : 34962
        },
        {
            "buffer" : 0,
            "byteLength" : 120372,
            "byteOffset" : 632428,
            "target" : 34963
        },
        {
            "buffer" : 0,
            "byteLength" : 13512,
            "byteOffset" : 752800,
            "target" : 34962
        },
        {
            "buffer" : 0,
            "byteLength" : 9008,
            "byteOffset" : 766312,
            "target" : 34962
        },
        {
            "buffer" : 0,
            "byteLength" : 13512,
            "byteOffset" : 775320,
            "target" : 34962
        },
        {
            "buffer" : 0,
            "byteLength" : 7992,
            "byteOffset" : 788832,
            "target" : 34963
        },
        {
            "buffer" : 0,
            "byteLength" : 56628,
            "byteOffset" : 796824,
            "target" : 34962
        },
        {
            "buffer" : 0,
            "byteLength" : 37752,
            "byteOffset" : 853452,
            "target" : 34962
        },
        {
            "buffer" : 0,
            "byteLength" : 56628,
            "byteOffset" : 891204,
            "target" : 34962
        },
        {
            "buffer" : 0,
            "byteLength" : 36660,
            "byteOffset" : 947832,
            "target" : 34963
        },
        {
            "buffer" : 0,
            "byteLength" : 269556,
            "byteOffset" : 984492,
            "target" : 34962
        },
        {
            "buffer" : 0,
            "byteLength" : 179704,
            "byteOffset" : 1254048,
            "target" : 34962
        },
        {
            "buffer" : 0,
            "byteLength" : 269556,
            "byteOffset" : 1433752,
            "target" : 34962
        },
        {
            "buffer" : 0,
            "byteLength" : 184770,
            "byteOffset" : 1703308,
            "target" : 34963
        },
        {
            "buffer" : 0,
            "byteLength" : 804,
            "byteOffset" : 1888080
        },
        {
            "buffer" : 0,
            "byteLength" : 3216,
            "byteOffset" : 1888884
        },
        {
            "buffer" : 0,
            "byteLength" : 4,
            "byteOffset" : 1892100
        },
        {
            "buffer" : 0,
            "byteLength" : 12,
            "byteOffset" : 1892104
        }
    ],
    "buffers" : [
        {
            "byteLength" : 1892116,
            "uri" : "data:application/octet-stream;base64,"
        }
    ]
}
