{
    "asset" : {
        "generator" : "Khronos glTF Blender I/O v3.4.50",
        "version" : "2.0"
    },
    "extensionsUsed" : [
        "KHR_materials_specular",
        "KHR_materials_ior"
    ],
    "scene" : 0,
    "scenes" : [
        {
            "name" : "Dark studio setup",
            "nodes" : [
                0,
                1,
                2,
                3
            ]
        },
        {
            "name" : "Scene",
            "nodes" : [
                4
            ]
        }
    ],
    "nodes" : [
        {
            "name" : "Empty",
            "translation" : [
                0,
                0.25165989995002747,
                0.00022971630096435547
            ]
        },
        {
            "mesh" : 0,
            "name" : "Brockton MK2 v2.001",
            "rotation" : [
                0.24828006327152252,
                -0.6740185618400574,
                0.2839790880680084,
                0.6351470947265625
            ],
            "scale" : [
                0.005099479574710131,
                0.005099480040371418,
                0.005099479109048843
            ],
            "translation" : [
                -0.11517985910177231,
                0.21574588119983673,
                0.08544423431158066
            ]
        },
        {
            "mesh" : 1,
            "name" : "Plane.032",
            "scale" : [
                5.400000095367432,
                5.400000095367432,
                5.400000095367432
            ]
        },
        {
            "name" : "IrradianceVolume"
        },
        {
            "mesh" : 2,
            "name" : "Brockton MK2 v2",
            "rotation" : [
                0.7071069478988647,
                0,
                0,
                0.7071066498756409
            ],
            "scale" : [
                0.18993598222732544,
                0.18993598222732544,
                0.18993598222732544
            ]
        }
    ],
    "animations" : [
        {
            "channels" : [
                {
                    "sampler" : 0,
                    "target" : {
                        "node" : 0,
                        "path" : "rotation"
                    }
                }
            ],
            "name" : "EmptyAction",
            "samplers" : [
                {
                    "input" : 14,
                    "interpolation" : "LINEAR",
                    "output" : 15
                }
            ]
        },
        {
            "channels" : [
                {
                    "sampler" : 0,
                    "target" : {
                        "node" : 1,
                        "path" : "rotation"
                    }
                }
            ],
            "name" : "Brockton MK2 v2.001Action.001",
            "samplers" : [
                {
                    "input" : 16,
                    "interpolation" : "LINEAR",
                    "output" : 17
                }
            ]
        },
        {
            "channels" : [
                {
                    "sampler" : 0,
                    "target" : {
                        "node" : 2,
                        "path" : "rotation"
                    }
                }
            ],
            "name" : "Plane.032Action",
            "samplers" : [
                {
                    "input" : 18,
                    "interpolation" : "STEP",
                    "output" : 19
                }
            ]
        }
    ],
    "materials" : [
        {
            "doubleSided" : true,
            "name" : "Brass polished",
            "pbrMetallicRoughness" : {
                "baseColorFactor" : [
                    0.9559733867645264,
                    0.630757212638855,
                    0.3049873113632202,
                    1
                ],
                "roughnessFactor" : 0.20000000298023224
            }
        },
        {
            "doubleSided" : true,
            "extensions" : {
                "KHR_materials_specular" : {
                    "specularColorFactor" : [
                        0.18101966360609226,
                        0.18101966360609226,
                        0.18101966360609226
                    ]
                },
                "KHR_materials_ior" : {
                    "ior" : 1.4500000476837158
                }
            },
            "name" : "bg",
            "pbrMetallicRoughness" : {
                "baseColorFactor" : [
                    0.025501592084765434,
                    0.025501592084765434,
                    0.025501592084765434,
                    1
                ],
                "metallicFactor" : 0,
                "roughnessFactor" : 0.7633587718009949
            }
        },
        {
            "doubleSided" : true,
            "name" : "Opaque(160,160,160)",
            "pbrMetallicRoughness" : {
                "baseColorFactor" : [
                    0.800000011920929,
                    0.800000011920929,
                    0.800000011920929,
                    1
                ],
                "metallicFactor" : 0,
                "roughnessFactor" : 0.5
            }
        }
    ],
    "meshes" : [
        {
            "name" : "Brockton MK2 v2.001",
            "primitives" : [
                {
                    "attributes" : {
                        "POSITION" : 0,
                        "TEXCOORD_0" : 1,
                        "TEXCOORD_1" : 2,
                        "NORMAL" : 3
                    },
                    "indices" : 4,
                    "material" : 0
                }
            ]
        },
        {
            "name" : "Plane.047",
            "primitives" : [
                {
                    "attributes" : {
                        "POSITION" : 5,
                        "TEXCOORD_0" : 6,
                        "TEXCOORD_1" : 7,
                        "NORMAL" : 8
                    },
                    "indices" : 9,
                    "material" : 1
                }
            ]
        },
        {
            "name" : "Brockton MK2 v2",
            "primitives" : [
                {
                    "attributes" : {
                        "POSITION" : 10,
                        "TEXCOORD_0" : 11,
                        "NORMAL" : 12
                    },
                    "indices" : 13,
                    "material" : 2
                }
            ]
        }
    ],
    "accessors" : [
        {
            "bufferView" : 0,
            "componentType" : 5126,
            "count" : 27719,
            "max" : [
                15.309440612792969,
                20.22043800354004,
                34.68278503417969
            ],
            "min" : [
                -15.290558815002441,
                -12.779561042785645,
                -75.6172103881836
            ],
            "type" : "VEC3"
        },
        {
            "bufferView" : 1,
            "componentType" : 5126,
            "count" : 27719,
            "type" : "VEC2"
        },
        {
            "bufferView" : 2,
            "componentType" : 5126,
            "count" : 27719,
            "type" : "VEC2"
        },
        {
            "bufferView" : 3,
            "componentType" : 5126,
            "count" : 27719,
            "type" : "VEC3"
        },
        {
            "bufferView" : 4,
            "componentType" : 5123,
            "count" : 92385,
            "type" : "SCALAR"
        },
        {
            "bufferView" : 5,
            "componentType" : 5126,
            "count" : 20,
            "max" : [
                1,
                0.9675031900405884,
                1
            ],
            "min" : [
                -1,
                0,
                -1
            ],
            "type" : "VEC3"
        },
        {
            "bufferView" : 6,
            "componentType" : 5126,
            "count" : 20,
            "type" : "VEC2"
        },
        {
            "bufferView" : 7,
            "componentType" : 5126,
            "count" : 20,
            "type" : "VEC2"
        },
        {
            "bufferView" : 8,
            "componentType" : 5126,
            "count" : 20,
            "type" : "VEC3"
        },
        {
            "bufferView" : 9,
            "componentType" : 5123,
            "count" : 48,
            "type" : "SCALAR"
        },
        {
            "bufferView" : 10,
            "componentType" : 5126,
            "count" : 22463,
            "max" : [
                30.299999237060547,
                3,
                0.28784701228141785
            ],
            "min" : [
                -0.30000001192092896,
                -30,
                -110.01215362548828
            ],
            "type" : "VEC3"
        },
        {
            "bufferView" : 11,
            "componentType" : 5126,
            "count" : 22463,
            "type" : "VEC2"
        },
        {
            "bufferView" : 12,
            "componentType" : 5126,
            "count" : 22463,
            "type" : "VEC3"
        },
        {
            "bufferView" : 13,
            "componentType" : 5123,
            "count" : 92385,
            "type" : "SCALAR"
        },
        {
            "bufferView" : 14,
            "componentType" : 5126,
            "count" : 145,
            "max" : [
                6.041666666666667
            ],
            "min" : [
                0.041666666666666664
            ],
            "type" : "SCALAR"
        },
        {
            "bufferView" : 15,
            "componentType" : 5126,
            "count" : 145,
            "type" : "VEC4"
        },
        {
            "bufferView" : 16,
            "componentType" : 5126,
            "count" : 140,
            "max" : [
                5.833333333333333
            ],
            "min" : [
                0.041666666666666664
            ],
            "type" : "SCALAR"
        },
        {
            "bufferView" : 17,
            "componentType" : 5126,
            "count" : 140,
            "type" : "VEC4"
        },
        {
            "bufferView" : 18,
            "componentType" : 5126,
            "count" : 1,
            "max" : [
                0
            ],
            "min" : [
                0
            ],
            "type" : "SCALAR"
        },
        {
            "bufferView" : 19,
            "componentType" : 5126,
            "count" : 1,
            "type" : "VEC4"
        }
    ],
    "bufferViews" : [
        {
            "buffer" : 0,
            "byteLength" : 332628,
            "byteOffset" : 0,
            "target" : 34962
        },
        {
            "buffer" : 0,
            "byteLength" : 221752,
            "byteOffset" : 332628,
            "target" : 34962
        },
        {
            "buffer" : 0,
            "byteLength" : 221752,
            "byteOffset" : 554380,
            "target" : 34962
        },
        {
            "buffer" : 0,
            "byteLength" : 332628,
            "byteOffset" : 776132,
            "target" : 34962
        },
        {
            "buffer" : 0,
            "byteLength" : 184770,
            "byteOffset" : 1108760,
            "target" : 34963
        },
        {
            "buffer" : 0,
            "byteLength" : 240,
            "byteOffset" : 1293532,
            "target" : 34962
        },
        {
            "buffer" : 0,
            "byteLength" : 160,
            "byteOffset" : 1293772,
            "target" : 34962
        },
        {
            "buffer" : 0,
            "byteLength" : 160,
            "byteOffset" : 1293932,
            "target" : 34962
        },
        {
            "buffer" : 0,
            "byteLength" : 240,
            "byteOffset" : 1294092,
            "target" : 34962
        },
        {
            "buffer" : 0,
            "byteLength" : 96,
            "byteOffset" : 1294332,
            "target" : 34963
        },
        {
            "buffer" : 0,
            "byteLength" : 269556,
            "byteOffset" : 1294428,
            "target" : 34962
        },
        {
            "buffer" : 0,
            "byteLength" : 179704,
            "byteOffset" : 1563984,
            "target" : 34962
        },
        {
            "buffer" : 0,
            "byteLength" : 269556,
            "byteOffset" : 1743688,
            "target" : 34962
        },
        {
            "buffer" : 0,
            "byteLength" : 184770,
            "byteOffset" : 2013244,
            "target" : 34963
        },
        {
            "buffer" : 0,
            "byteLength" : 580,
            "byteOffset" : 2198016
        },
        {
            "buffer" : 0,
            "byteLength" : 2320,
            "byteOffset" : 2198596
        },
        {
            "buffer" : 0,
            "byteLength" : 560,
            "byteOffset" : 2200916
        },
        {
            "buffer" : 0,
            "byteLength" : 2240,
            "byteOffset" : 2201476
        },
        {
            "buffer" : 0,
            "byteLength" : 4,
            "byteOffset" : 2203716
        },
        {
            "buffer" : 0,
            "byteLength" : 16,
            "byteOffset" : 2203720
        }
    ],
    "buffers" : [
        {
            "byteLength" : 2203736,
            "uri" : "data:application/octet-stream;base64,"
        }
    ]
}
